<svg xmlns="http://www.w3.org/2000/svg" xmlns:xlink="http://www.w3.org/1999/xlink" width="500" zoomAndPan="magnify" viewBox="0 0 375 374.999991" height="500" preserveAspectRatio="xMidYMid meet" version="1.0"><defs><g/><clipPath id="a7f3efff9b"><path d="M 35 3 L 307 3 L 307 351 L 35 351 Z M 35 3 " clip-rule="nonzero"/></clipPath><clipPath id="ac835a691d"><path d="M 31.65625 42.144531 L 249.609375 -0.0546875 L 310.058594 312.148438 L 92.105469 354.347656 Z M 31.65625 42.144531 " clip-rule="nonzero"/></clipPath><clipPath id="d12238383c"><path d="M 31.65625 42.144531 L 249.609375 -0.0546875 L 310.058594 312.148438 L 92.105469 354.347656 Z M 31.65625 42.144531 " clip-rule="nonzero"/></clipPath><clipPath id="73f7b7a8a8"><path d="M 31.75 42.125 L 249.3125 0.00390625 L 309.769531 312.246094 L 92.203125 354.371094 Z M 31.75 42.125 " clip-rule="nonzero"/></clipPath><clipPath id="effb9730ec"><path d="M 31.75 42.125 L 249.226562 0.0195312 L 309.648438 312.089844 L 92.171875 354.195312 Z M 31.75 42.125 " clip-rule="nonzero"/></clipPath><clipPath id="9881c93c32"><path d="M 51 49 L 84 49 L 84 82 L 51 82 Z M 51 49 " clip-rule="nonzero"/></clipPath><clipPath id="7a46eaa5f1"><path d="M 48.691406 53.214844 L 80.273438 46.695312 L 86.796875 78.277344 L 55.214844 84.800781 Z M 48.691406 53.214844 " clip-rule="nonzero"/></clipPath><clipPath id="56fc6ca9f3"><path d="M 48.691406 53.214844 L 80.273438 46.695312 L 86.796875 78.277344 L 55.214844 84.800781 Z M 48.691406 53.214844 " clip-rule="nonzero"/></clipPath><clipPath id="b66b70b57f"><path d="M 84 51 L 341 51 L 341 375 L 84 375 Z M 84 51 " clip-rule="nonzero"/></clipPath><clipPath id="da80dd2319"><path d="M 123.546875 49.449219 L 343.625 78.59375 L 301.878906 393.839844 L 81.800781 364.695312 Z M 123.546875 49.449219 " clip-rule="nonzero"/></clipPath><clipPath id="79a52dbb5c"><path d="M 123.546875 49.449219 L 343.625 78.59375 L 301.878906 393.839844 L 81.800781 364.695312 Z M 123.546875 49.449219 " clip-rule="nonzero"/></clipPath><clipPath id="db9ddf691c"><path d="M 123.640625 49.460938 L 343.324219 78.554688 L 301.574219 393.84375 L 81.886719 364.753906 Z M 123.640625 49.460938 " clip-rule="nonzero"/></clipPath><clipPath id="9ecb13e506"><path d="M 123.640625 49.460938 L 343.238281 78.542969 L 301.507812 393.65625 L 81.910156 364.574219 Z M 123.640625 49.460938 " clip-rule="nonzero"/></clipPath><clipPath id="0e3368f84d"><path d="M 134 67 L 167 67 L 167 100 L 134 100 Z M 134 67 " clip-rule="nonzero"/></clipPath><clipPath id="bb2e4d7605"><path d="M 136.1875 65.355469 L 168.207031 69.191406 L 164.371094 101.210938 L 132.351562 97.375 Z M 136.1875 65.355469 " clip-rule="nonzero"/></clipPath><clipPath id="38fc0200c9"><path d="M 136.1875 65.355469 L 168.207031 69.191406 L 164.371094 101.210938 L 132.351562 97.375 Z M 136.1875 65.355469 " clip-rule="nonzero"/></clipPath></defs><g clip-path="url(#a7f3efff9b)"><g clip-path="url(#ac835a691d)"><g clip-path="url(#d12238383c)"><g clip-path="url(#73f7b7a8a8)"><g clip-path="url(#effb9730ec)"><path fill="#222222" d="M 289.925781 315.90625 L 111.890625 350.378906 C 101 352.488281 90.460938 345.367188 88.351562 334.476562 L 35.566406 61.847656 C 33.457031 50.957031 40.578125 40.417969 51.46875 38.308594 L 229.503906 3.835938 C 240.394531 1.730469 250.9375 8.847656 253.042969 19.742188 L 305.828125 292.367188 C 307.9375 303.261719 300.816406 313.800781 289.925781 315.90625 " fill-opacity="1" fill-rule="nonzero"/></g></g></g></g></g><g clip-path="url(#9881c93c32)"><g clip-path="url(#7a46eaa5f1)"><g clip-path="url(#56fc6ca9f3)"><path fill="#ffffff" d="M 83.332031 62.429688 C 85.105469 71.074219 79.589844 79.574219 70.863281 81.371094 C 62.199219 83.15625 53.730469 77.609375 51.9375 68.90625 C 50.140625 60.191406 55.75 51.765625 64.394531 49.976562 C 73.058594 48.183594 81.542969 53.769531 83.332031 62.429688 Z M 71.054688 68.550781 C 70.65625 66.617188 70.253906 64.683594 69.859375 62.75 C 69.710938 62.015625 69.324219 61.453125 68.683594 61.082031 C 67.675781 60.496094 66.652344 60.539062 65.667969 61.136719 C 64.726562 61.703125 64.25 62.816406 64.484375 63.917969 C 65.300781 67.765625 66.085938 71.621094 66.875 75.476562 C 67.324219 77.652344 69.265625 77.632812 70.15625 77.449219 C 71.496094 77.164062 72.589844 75.8125 72.246094 74.265625 C 71.816406 72.367188 71.449219 70.457031 71.054688 68.550781 Z M 68.6875 56.152344 C 68.351562 54.542969 66.804688 53.527344 65.195312 53.863281 C 63.582031 54.195312 62.5625 55.75 62.898438 57.363281 C 63.230469 58.957031 64.796875 59.984375 66.394531 59.65625 C 68 59.324219 69.019531 57.765625 68.6875 56.152344 Z M 68.6875 56.152344 " fill-opacity="1" fill-rule="nonzero"/></g></g></g><g clip-path="url(#b66b70b57f)"><g clip-path="url(#da80dd2319)"><g clip-path="url(#79a52dbb5c)"><g clip-path="url(#db9ddf691c)"><g clip-path="url(#9ecb13e506)"><path fill="#ffffff" d="M 281.59375 391.019531 L 101.824219 367.210938 C 90.824219 365.757812 83.089844 355.660156 84.546875 344.660156 L 121 69.375 C 122.457031 58.375 132.554688 50.640625 143.554688 52.097656 L 323.324219 75.90625 C 334.320312 77.359375 342.058594 87.457031 340.601562 98.457031 L 304.144531 373.742188 C 302.6875 384.742188 292.589844 392.476562 281.59375 391.019531 " fill-opacity="1" fill-rule="nonzero"/></g></g></g></g></g><g fill="#000000" fill-opacity="1"><g transform="translate(136.876787, 259.843085)"><g><path d="M 14.875 -83.921875 L 38.171875 -80.859375 C 44.203125 -80.054688 48.503906 -77.785156 51.078125 -74.046875 C 53.648438 -70.316406 54.539062 -65.171875 53.75 -58.609375 L 48.71875 -19.0625 C 47.6875 -10.726562 45.421875 -4.660156 41.921875 -0.859375 C 38.421875 2.941406 33.257812 4.390625 26.4375 3.484375 L 3.734375 0.5 Z M 25.65625 -11.8125 C 28.726562 -11.40625 30.460938 -12.707031 30.859375 -15.71875 L 36.609375 -59.265625 C 36.859375 -61.160156 36.898438 -62.601562 36.734375 -63.59375 C 36.566406 -64.582031 36.113281 -65.289062 35.375 -65.71875 C 34.632812 -66.15625 33.441406 -66.484375 31.796875 -66.703125 L 29.9375 -66.953125 L 22.703125 -12.203125 Z M 25.65625 -11.8125 "/></g></g></g><g fill="#000000" fill-opacity="1"><g transform="translate(185.327873, 266.239917)"><g><path d="M 3.734375 0.5 L 14.875 -83.921875 L 48.6875 -79.46875 L 46.546875 -63.15625 L 29.921875 -65.34375 L 27.75 -48.921875 L 43.6875 -46.828125 L 41.578125 -30.921875 L 25.640625 -33.015625 L 23.09375 -13.65625 L 40.8125 -11.328125 L 38.640625 5.09375 Z M 3.734375 0.5 "/></g></g></g><g fill="#000000" fill-opacity="1"><g transform="translate(225.818428, 271.585748)"><g><path d="M 1.46875 0.1875 L 20.78125 -83.15625 L 49.375 -79.375 L 46.28125 6.109375 L 30.265625 4 L 30.890625 -9.8125 L 20.671875 -11.171875 L 17.890625 2.359375 Z M 23.734375 -24.46875 L 31.40625 -23.453125 L 33.34375 -66.890625 L 32.546875 -67 Z M 23.734375 -24.46875 "/></g></g></g><g clip-path="url(#0e3368f84d)"><g clip-path="url(#bb2e4d7605)"><g clip-path="url(#38fc0200c9)"><path fill="#222222" d="M 166.113281 85.085938 C 165.054688 93.84375 157.125 100.15625 148.28125 99.089844 C 139.496094 98.03125 133.226562 90.085938 134.285156 81.261719 C 135.347656 72.429688 143.34375 66.21875 152.109375 67.265625 C 160.890625 68.316406 167.164062 76.300781 166.113281 85.085938 Z M 152.53125 86.992188 C 152.765625 85.03125 152.996094 83.074219 153.238281 81.113281 C 153.328125 80.371094 153.140625 79.710938 152.652344 79.15625 C 151.878906 78.28125 150.894531 78 149.773438 78.25 C 148.703125 78.492188 147.894531 79.398438 147.769531 80.515625 C 147.320312 84.421875 146.84375 88.328125 146.371094 92.234375 C 146.105469 94.441406 147.953125 95.039062 148.855469 95.144531 C 150.214844 95.300781 151.683594 94.367188 151.84375 92.789062 C 152.039062 90.855469 152.296875 88.925781 152.53125 86.992188 Z M 154.21875 74.480469 C 154.410156 72.851562 153.265625 71.398438 151.632812 71.203125 C 150 71.007812 148.535156 72.160156 148.34375 73.792969 C 148.152344 75.410156 149.3125 76.886719 150.933594 77.078125 C 152.5625 77.273438 154.023438 76.117188 154.21875 74.480469 Z M 154.21875 74.480469 " fill-opacity="1" fill-rule="nonzero"/></g></g></g></svg>