<svg xmlns="http://www.w3.org/2000/svg" xmlns:xlink="http://www.w3.org/1999/xlink" width="500" zoomAndPan="magnify" viewBox="0 0 375 374.999991" height="500" preserveAspectRatio="xMidYMid meet" version="1.0"><defs><g/><clipPath id="bcb143685f"><path d="M 42 3 L 301 3 L 301 335 L 42 335 Z M 42 3 " clip-rule="nonzero"/></clipPath><clipPath id="06463b5162"><path d="M 39.050781 40.144531 L 246.691406 -0.0585938 L 304.289062 297.417969 L 96.644531 337.621094 Z M 39.050781 40.144531 " clip-rule="nonzero"/></clipPath><clipPath id="c7879218ed"><path d="M 39.050781 40.144531 L 246.691406 -0.0585938 L 304.289062 297.417969 L 96.644531 337.621094 Z M 39.050781 40.144531 " clip-rule="nonzero"/></clipPath><clipPath id="03f43cb6c8"><path d="M 39.136719 40.128906 L 246.382812 0 L 303.972656 297.441406 L 96.726562 337.570312 Z M 39.136719 40.128906 " clip-rule="nonzero"/></clipPath><clipPath id="8498a48ca1"><path d="M 39.136719 40.128906 L 246.300781 0.0195312 L 303.859375 297.292969 L 96.691406 337.402344 Z M 39.136719 40.128906 " clip-rule="nonzero"/></clipPath><clipPath id="9ef4a3b8e1"><path d="M 58 47 L 89 47 L 89 78 L 58 78 Z M 58 47 " clip-rule="nonzero"/></clipPath><clipPath id="dd988f5700"><path d="M 55.277344 50.691406 L 85.390625 44.472656 L 91.609375 74.585938 L 61.496094 80.808594 Z M 55.277344 50.691406 " clip-rule="nonzero"/></clipPath><clipPath id="5043407738"><path d="M 55.277344 50.691406 L 85.390625 44.472656 L 91.609375 74.585938 L 61.496094 80.808594 Z M 55.277344 50.691406 " clip-rule="nonzero"/></clipPath><clipPath id="fc08c8b20b"><path d="M 89 49 L 334 49 L 334 373 L 89 373 Z M 89 49 " clip-rule="nonzero"/></clipPath><clipPath id="31df7be717"><path d="M 126.582031 47.101562 L 336.25 74.867188 L 296.472656 375.246094 L 86.804688 347.480469 Z M 126.582031 47.101562 " clip-rule="nonzero"/></clipPath><clipPath id="0ec8de9777"><path d="M 126.582031 47.101562 L 336.25 74.867188 L 296.472656 375.246094 L 86.804688 347.480469 Z M 126.582031 47.101562 " clip-rule="nonzero"/></clipPath><clipPath id="6952ab18e8"><path d="M 126.667969 47.113281 L 335.941406 74.828125 L 296.167969 375.171875 L 86.894531 347.457031 Z M 126.667969 47.113281 " clip-rule="nonzero"/></clipPath><clipPath id="7843fb0e09"><path d="M 126.667969 47.113281 L 335.855469 74.816406 L 296.105469 374.992188 L 86.917969 347.289062 Z M 126.667969 47.113281 " clip-rule="nonzero"/></clipPath><clipPath id="127ca5b9e3"><path d="M 136 63 L 168 63 L 168 95 L 136 95 Z M 136 63 " clip-rule="nonzero"/></clipPath><clipPath id="5a69346eaa"><path d="M 138.621094 62.253906 L 169.152344 65.914062 L 165.496094 96.445312 L 134.960938 92.785156 Z M 138.621094 62.253906 " clip-rule="nonzero"/></clipPath><clipPath id="4ee7798737"><path d="M 138.621094 62.253906 L 169.152344 65.914062 L 165.496094 96.445312 L 134.960938 92.785156 Z M 138.621094 62.253906 " clip-rule="nonzero"/></clipPath></defs><g clip-path="url(#bcb143685f)"><g clip-path="url(#06463b5162)"><g clip-path="url(#c7879218ed)"><g clip-path="url(#03f43cb6c8)"><g clip-path="url(#8498a48ca1)"><path fill="#ffffff" d="M 285.074219 300.929688 L 115.480469 333.765625 C 105.105469 335.773438 95.0625 328.992188 93.054688 318.617188 L 42.773438 58.914062 C 40.765625 48.539062 47.546875 38.5 57.921875 36.492188 L 227.515625 3.65625 C 237.890625 1.648438 247.929688 8.429688 249.941406 18.804688 L 300.222656 278.503906 C 302.230469 288.882812 295.445312 298.921875 285.074219 300.929688 " fill-opacity="1" fill-rule="nonzero"/></g></g></g></g></g><g clip-path="url(#9ef4a3b8e1)"><g clip-path="url(#dd988f5700)"><g clip-path="url(#5043407738)"><path fill="#101013" d="M 88.269531 59.46875 C 89.960938 67.699219 84.707031 75.796875 76.394531 77.507812 C 68.140625 79.207031 60.078125 73.925781 58.367188 65.636719 C 56.65625 57.335938 62 49.308594 70.234375 47.605469 C 78.484375 45.898438 86.566406 51.21875 88.269531 59.46875 Z M 76.578125 65.296875 C 76.195312 63.453125 75.8125 61.617188 75.4375 59.773438 C 75.296875 59.074219 74.925781 58.535156 74.316406 58.183594 C 73.355469 57.625 72.382812 57.667969 71.445312 58.234375 C 70.550781 58.777344 70.097656 59.835938 70.316406 60.886719 C 71.097656 64.550781 71.84375 68.222656 72.597656 71.894531 C 73.023438 73.964844 74.875 73.949219 75.722656 73.769531 C 77 73.503906 78.039062 72.214844 77.710938 70.742188 C 77.300781 68.933594 76.953125 67.113281 76.578125 65.296875 Z M 74.320312 53.488281 C 74 51.957031 72.527344 50.988281 70.996094 51.304688 C 69.460938 51.625 68.488281 53.105469 68.804688 54.640625 C 69.121094 56.160156 70.617188 57.140625 72.136719 56.824219 C 73.667969 56.507812 74.636719 55.023438 74.320312 53.488281 Z M 74.320312 53.488281 " fill-opacity="1" fill-rule="nonzero"/></g></g></g><g clip-path="url(#fc08c8b20b)"><g clip-path="url(#31df7be717)"><g clip-path="url(#0ec8de9777)"><g clip-path="url(#6952ab18e8)"><g clip-path="url(#7843fb0e09)"><path fill="#101013" d="M 277.132812 372.480469 L 105.886719 349.800781 C 95.410156 348.414062 88.042969 338.796875 89.429688 328.320312 L 124.15625 66.085938 C 125.542969 55.605469 135.160156 48.238281 145.636719 49.625 L 316.886719 72.304688 C 327.363281 73.691406 334.730469 83.308594 333.34375 93.785156 L 298.617188 356.019531 C 297.230469 366.5 287.609375 373.867188 277.132812 372.480469 " fill-opacity="1" fill-rule="nonzero"/></g></g></g></g></g><g clip-path="url(#127ca5b9e3)"><g clip-path="url(#5a69346eaa)"><g clip-path="url(#4ee7798737)"><path fill="#ffffff" d="M 167.125 81.046875 C 166.117188 89.390625 158.566406 95.402344 150.140625 94.386719 C 141.773438 93.378906 135.800781 85.8125 136.8125 77.40625 C 137.820312 68.992188 145.4375 63.078125 153.785156 64.074219 C 162.152344 65.074219 168.125 72.679688 167.125 81.046875 Z M 154.1875 82.863281 C 154.410156 80.996094 154.632812 79.132812 154.859375 77.261719 C 154.949219 76.558594 154.769531 75.929688 154.300781 75.402344 C 153.566406 74.566406 152.632812 74.296875 151.5625 74.539062 C 150.542969 74.769531 149.773438 75.628906 149.652344 76.695312 C 149.226562 80.417969 148.769531 84.136719 148.320312 87.855469 C 148.066406 89.957031 149.824219 90.527344 150.6875 90.628906 C 151.984375 90.777344 153.378906 89.886719 153.535156 88.386719 C 153.71875 86.542969 153.96875 84.703125 154.1875 82.863281 Z M 155.796875 70.949219 C 155.976562 69.394531 154.886719 68.011719 153.332031 67.824219 C 151.777344 67.640625 150.382812 68.734375 150.199219 70.292969 C 150.019531 71.832031 151.125 73.238281 152.664062 73.421875 C 154.21875 73.609375 155.609375 72.507812 155.796875 70.949219 Z M 155.796875 70.949219 " fill-opacity="1" fill-rule="nonzero"/></g></g></g><g fill="#ffffff" fill-opacity="1"><g transform="translate(139.278378, 247.518304)"><g><path d="M 14.1875 -79.953125 L 36.375 -77.015625 C 42.113281 -76.265625 46.207031 -74.109375 48.65625 -70.546875 C 51.101562 -66.984375 51.945312 -62.078125 51.1875 -55.828125 L 46.40625 -18.171875 C 45.414062 -10.234375 43.253906 -4.453125 39.921875 -0.828125 C 36.585938 2.796875 31.675781 4.179688 25.1875 3.328125 L 3.5625 0.46875 Z M 24.4375 -11.25 C 27.375 -10.863281 29.035156 -12.109375 29.421875 -14.984375 L 34.890625 -56.453125 C 35.128906 -58.253906 35.164062 -59.628906 35 -60.578125 C 34.832031 -61.523438 34.394531 -62.203125 33.6875 -62.609375 C 32.988281 -63.015625 31.859375 -63.320312 30.296875 -63.53125 L 28.515625 -63.765625 L 21.625 -11.625 Z M 24.4375 -11.25 "/></g></g></g><g fill="#ffffff" fill-opacity="1"><g transform="translate(185.431279, 253.611715)"><g><path d="M 3.5625 0.46875 L 14.1875 -79.953125 L 46.390625 -75.703125 L 44.328125 -60.15625 L 28.5 -62.25 L 26.4375 -46.625 L 41.609375 -44.609375 L 39.609375 -29.4375 L 24.4375 -31.453125 L 22 -13 L 38.859375 -10.765625 L 36.796875 4.859375 Z M 3.5625 0.46875 "/></g></g></g><g fill="#ffffff" fill-opacity="1"><g transform="translate(224.001242, 258.703977)"><g><path d="M 1.40625 0.1875 L 19.796875 -79.21875 L 47.046875 -75.609375 L 44.09375 5.828125 L 28.84375 3.8125 L 29.4375 -9.359375 L 19.6875 -10.640625 L 17.046875 2.25 Z M 22.59375 -23.3125 L 29.890625 -22.34375 L 31.75 -63.71875 L 31 -63.828125 Z M 22.59375 -23.3125 "/></g></g></g></svg>