<svg viewBox="0 0 38 42" fill="none" xmlns="http://www.w3.org/2000/svg">
<path d="M10.6667 4.33329C10.6667 5.43836 10.2277 6.49817 9.44628 7.27957C8.66488 8.06097 7.60507 8.49996 6.5 8.49996C5.39493 8.49996 4.33512 8.06097 3.55372 7.27957C2.77232 6.49817 2.33333 5.43836 2.33333 4.33329C2.33333 3.22822 2.77232 2.16842 3.55372 1.38701C4.33512 0.605613 5.39493 0.166626 6.5 0.166626C7.60507 0.166626 8.66488 0.605613 9.44628 1.38701C10.2277 2.16842 10.6667 3.22822 10.6667 4.33329ZM4.41667 29.3333V41.8333H0.25V16.8333C0.249807 15.6009 0.613958 14.396 1.29667 13.37C1.97938 12.344 2.95018 11.5427 4.08702 11.0669C5.22385 10.5911 6.47598 10.462 7.68597 10.6959C8.89597 10.9297 10.0098 11.5161 10.8875 12.3812L15.8333 17.0541L20.6521 12.2354L23.5979 15.1812L15.9167 22.8625L12.75 19.875V41.8333H8.58333V29.3333H4.41667ZM14.8333 6.41663H33.5833V25.1666H14.8333V29.3333H23.9271L29.8104 41.8333H34.4146L28.5333 29.3333H35.6667C36.2192 29.3333 36.7491 29.1138 37.1398 28.7231C37.5305 28.3324 37.75 27.8025 37.75 27.25V4.33329C37.75 3.78076 37.5305 3.25085 37.1398 2.86015C36.7491 2.46945 36.2192 2.24996 35.6667 2.24996H14.8333V6.41663Z"/>
</svg>
