<svg viewBox="0 0 50 50" fill="none" xmlns="http://www.w3.org/2000/svg">
<path  d="M25 43.75V31.25H28.125V43.75H43.75V15.625H46.875V43.75C46.875 44.5788 46.5458 45.3737 45.9597 45.9597C45.3737 46.5458 44.5788 46.875 43.75 46.875H6.25C5.4212 46.875 4.62634 46.5458 4.04029 45.9597C3.45424 45.3737 3.125 44.5788 3.125 43.75V37.5H6.25V43.75H25ZM40.1656 12.0438L30.7938 21.4188C31.2951 22.4623 31.3925 23.6544 31.0672 24.7655C30.742 25.8765 30.0171 26.8279 29.0322 27.4364C28.0473 28.0449 26.8721 28.2674 25.733 28.061C24.5939 27.8547 23.5714 27.2341 22.8625 26.3188L14.3813 29.1438L12.5 29.7719C12.4803 30.8776 12.0703 31.9407 11.3425 32.7733C10.6147 33.6059 9.61594 34.1544 8.52282 34.3218C7.4297 34.4892 6.31259 34.2648 5.36897 33.6881C4.42536 33.1115 3.716 32.2198 3.36629 31.1707C3.01659 30.1215 3.04906 28.9826 3.45796 27.9551C3.86687 26.9276 4.62588 26.0778 5.60081 25.5558C6.57575 25.0339 7.70383 24.8734 8.78564 25.1028C9.86744 25.3322 10.8333 25.9367 11.5125 26.8094L21.875 23.3532C21.8889 22.5686 22.0996 21.8 22.4878 21.118C22.8759 20.436 23.429 19.8623 24.0965 19.4496C24.7639 19.0369 25.5242 18.7984 26.3078 18.7558C27.0914 18.7133 27.8731 18.8682 28.5812 19.2063L37.9562 9.83129C37.4796 8.83349 37.3711 7.69933 37.6499 6.62926C37.9286 5.55919 38.5767 4.62211 39.4796 3.98366C40.3824 3.34522 41.4819 3.0465 42.5837 3.14032C43.6855 3.23414 44.7187 3.71445 45.5006 4.49636C46.2825 5.27826 46.7628 6.31142 46.8566 7.41321C46.9504 8.51501 46.6517 9.6145 46.0133 10.5174C45.3748 11.4202 44.4377 12.0683 43.3677 12.347C42.2976 12.6258 41.1634 12.5173 40.1656 12.0407"/>
</svg>